<svg width="154" height="192" viewBox="0 0 154 192" fill="none" xmlns="http://www.w3.org/2000/svg">
<path fill-rule="evenodd" clip-rule="evenodd" d="M2.02597 1C1.46365 1 1.01188 1.46349 1.0263 2.02563L1.98652 39.4744C1.99496 39.8034 2.16452 40.1071 2.43951 40.288C3.65077 41.0849 7.13695 43.3989 10 45.5C12.3863 47.2512 15.9645 49.7297 17.193 50.5774C17.4641 50.7645 17.625 51.0718 17.625 51.4013V140.61C17.625 140.933 17.469 141.236 17.2062 141.424L1.41876 152.701C1.15597 152.889 1 153.192 1 153.515V190C1 190.552 1.44772 191 2 191H152C152.552 191 153 190.552 153 190V153.554C153 153.209 152.822 152.889 152.53 152.706L134.47 141.419C134.178 141.236 134 140.916 134 140.571V51.4683C134 51.1025 134.2 50.7659 134.521 50.5906L152.479 40.7844C152.8 40.6091 153 40.2725 153 39.9067V2C153 1.44772 152.552 1 152 1H136.5C135.948 1 135.5 1.44772 135.5 2V5V8.5V11.6875V15.25C135.5 30 117.375 30 117.375 15.25V2C117.375 1.44771 116.927 1 116.375 1H101.75C101.198 1 100.75 1.44772 100.75 2V15.25C100.75 30 84.125 30 84.125 15.25V2C84.125 1.44771 83.6773 1 83.125 1H70C69.4477 1 69 1.44772 69 2V15.25C69 30 53 30 53 15.25V2C53 1.44771 52.5523 1 52 1H37.625C37.0727 1 36.625 1.44772 36.625 2V15.25C36.625 30 17.625 30 17.625 15.25V2C17.625 1.44771 17.1773 1 16.625 1H2.02597ZM58 86.5V121.125C58 121.677 58.4477 122.125 59 122.125H93.8125C94.3648 122.125 94.8125 121.677 94.8125 121.125V86.5C94.8125 57.5 58 56.5 58 86.5Z" fill="black" stroke="black"/>
</svg>
