<svg width="153" height="192" viewBox="0 0 153 192" fill="none" xmlns="http://www.w3.org/2000/svg">
<path fill-rule="evenodd" clip-rule="evenodd" d="M1.52597 1C0.963647 1 0.511884 1.46349 0.526298 2.02563L1.48652 39.4744C1.49496 39.8034 1.66452 40.1071 1.93951 40.288C3.15077 41.0849 6.63695 43.3989 9.5 45.5C11.8863 47.2512 15.4645 49.7297 16.693 50.5774C16.9641 50.7645 17.125 51.0718 17.125 51.4013V140.61C17.125 140.933 16.969 141.236 16.7062 141.424L0.918762 152.701C0.655966 152.889 0.5 153.192 0.5 153.515V190C0.5 190.552 0.947715 191 1.5 191H151.5C152.052 191 152.5 190.552 152.5 190V153.554C152.5 153.209 152.322 152.889 152.03 152.706L133.97 141.419C133.678 141.236 133.5 140.916 133.5 140.571V51.4683C133.5 51.1025 133.7 50.7659 134.021 50.5906L151.979 40.7844C152.3 40.6091 152.5 40.2725 152.5 39.9067V2C152.5 1.44772 152.052 1 151.5 1H136C135.448 1 135 1.44772 135 2V5V8.5V11.6875V15.25C135 30 116.875 30 116.875 15.25V2C116.875 1.44771 116.427 1 115.875 1H101.25C100.698 1 100.25 1.44772 100.25 2V15.25C100.25 30 83.625 30 83.625 15.25V2C83.625 1.44771 83.1773 1 82.625 1H69.5C68.9477 1 68.5 1.44772 68.5 2V15.25C68.5 30 52.5 30 52.5 15.25V2C52.5 1.44771 52.0523 1 51.5 1H37.125C36.5727 1 36.125 1.44772 36.125 2V15.25C36.125 30 17.125 30 17.125 15.25V2C17.125 1.44771 16.6773 1 16.125 1H1.52597ZM57.5 86.5V121.125C57.5 121.677 57.9477 122.125 58.5 122.125H93.3125C93.8648 122.125 94.3125 121.677 94.3125 121.125V86.5C94.3125 57.5 57.5 56.5 57.5 86.5Z" fill="white" stroke="white"/>
</svg>
